<svg width="44" height="43" viewBox="0 0 44 43" fill="none" xmlns="http://www.w3.org/2000/svg">
<path d="M17.2153 2.19492C20.0104 0.811695 23.2908 0.811694 26.086 2.19492L37.7366 7.96049C41.1446 9.64703 43.3013 13.1205 43.3013 16.9231V25.9341C43.3013 29.7366 41.1446 33.2101 37.7366 34.8967L26.086 40.6622C23.2908 42.0454 20.0104 42.0454 17.2153 40.6622L5.56468 34.8967C2.15662 33.2101 0 29.7366 0 25.9341L0 16.9231C0 13.1205 2.15662 9.64704 5.56467 7.96049L17.2153 2.19492Z" fill="black"/>
<path d="M13.3156 16.3175C12.7015 16.3175 12.1012 16.4736 11.5906 16.7661C11.0801 17.0585 10.6822 17.4742 10.4473 17.9605C10.2124 18.4469 10.151 18.982 10.271 19.4982C10.3909 20.0144 10.6868 20.4885 11.1212 20.8606C11.5555 21.2326 12.1089 21.4859 12.7112 21.5884C13.3135 21.6908 13.9378 21.6379 14.505 21.4362C15.0722 21.2346 15.5569 20.8932 15.8978 20.4554C16.2386 20.0176 16.4203 19.503 16.4199 18.9766C16.4199 18.6273 16.3396 18.2813 16.1836 17.9586C16.0275 17.6359 15.7988 17.3426 15.5106 17.0957C15.2223 16.8488 14.88 16.6529 14.5034 16.5194C14.1268 16.3859 13.7231 16.3173 13.3156 16.3175ZM12.4805 16.9742C12.4805 16.9306 12.4905 16.8874 12.5101 16.8471C12.5296 16.8068 12.5583 16.7703 12.5943 16.7395C12.6304 16.7087 12.6733 16.6844 12.7204 16.6679C12.7675 16.6513 12.8179 16.6429 12.8688 16.6432H13.7352C13.7861 16.6429 13.8365 16.6513 13.8836 16.6679C13.9307 16.6844 13.9735 16.7087 14.0096 16.7395C14.0457 16.7703 14.0744 16.8068 14.0939 16.8471C14.1134 16.8874 14.1235 16.9306 14.1235 16.9742V17.9548C14.1203 18.0571 14.0769 18.1555 14.0003 18.234L13.4032 18.7923C13.3905 18.8054 13.3746 18.816 13.3565 18.8233C13.3385 18.8305 13.3188 18.8343 13.2989 18.8343C13.2789 18.8343 13.2592 18.8305 13.2412 18.8233C13.2232 18.816 13.2072 18.8054 13.1945 18.7923L12.6475 18.2787C12.5944 18.2376 12.5515 18.1877 12.5213 18.1321C12.4912 18.0764 12.4745 18.0162 12.4721 17.9548L12.4805 16.9742ZM12.0233 19.6799H10.8792C10.7763 19.6799 10.6775 19.6448 10.6047 19.5824C10.5318 19.52 10.4909 19.4353 10.4909 19.347V18.6044C10.4909 18.5161 10.5318 18.4315 10.6047 18.3691C10.6775 18.3066 10.7763 18.2716 10.8792 18.2716H12.0233C12.1426 18.2746 12.2572 18.3118 12.349 18.3771L13.0003 18.8889C13.0156 18.8998 13.028 18.9135 13.0365 18.929C13.0449 18.9444 13.0493 18.9613 13.0493 18.9784C13.0493 18.9955 13.0449 19.0124 13.0365 19.0278C13.028 19.0433 13.0156 19.057 13.0003 19.0679L12.397 19.5295C12.3495 19.5747 12.292 19.6112 12.2278 19.637C12.1637 19.6628 12.0941 19.6774 12.0233 19.6799ZM14.111 21.081C14.111 21.1693 14.0701 21.2539 13.9972 21.3163C13.9244 21.3788 13.8256 21.4138 13.7227 21.4138H12.8646C12.7616 21.4138 12.6629 21.3788 12.59 21.3163C12.5172 21.2539 12.4763 21.1693 12.4763 21.081V20.1022C12.4786 20.0408 12.4954 19.9806 12.5255 19.9249C12.5556 19.8693 12.5985 19.8194 12.6517 19.7783L13.1986 19.2647C13.2114 19.2516 13.2273 19.241 13.2454 19.2337C13.2634 19.2265 13.2831 19.2227 13.303 19.2227C13.323 19.2227 13.3426 19.2265 13.3607 19.2337C13.3787 19.241 13.3947 19.2516 13.4074 19.2647L14.0045 19.823C14.0808 19.9017 14.1241 19.9999 14.1277 20.1022L14.111 21.081ZM15.6621 19.6799H14.5264C14.4549 19.6779 14.3845 19.6635 14.3196 19.6377C14.2547 19.6119 14.1965 19.5751 14.1485 19.5295L13.5515 19.0607C13.5358 19.05 13.5232 19.0364 13.5145 19.0209C13.5058 19.0054 13.5013 18.9884 13.5013 18.9712C13.5013 18.9541 13.5058 18.9371 13.5145 18.9216C13.5232 18.9061 13.5358 18.8925 13.5515 18.8818L14.2007 18.37C14.2925 18.3046 14.4071 18.2675 14.5264 18.2644H15.6705C15.7734 18.2644 15.8722 18.2995 15.945 18.3619C16.0179 18.4243 16.0588 18.509 16.0588 18.5972V19.3399C16.0599 19.3842 16.0507 19.4282 16.0316 19.4694C16.0126 19.5106 15.9842 19.5482 15.948 19.5799C15.9119 19.6115 15.8687 19.6367 15.821 19.6539C15.7733 19.671 15.7222 19.6799 15.6705 19.6799H15.6621Z" fill="#D9D9D9"/>
<path d="M16.23 17.5039V16.5269C16.2387 16.4059 16.3009 16.2924 16.4039 16.2093C16.5069 16.1263 16.6429 16.0801 16.7843 16.0801C16.9257 16.0801 17.0618 16.1263 17.1648 16.2093C17.2678 16.2924 17.3299 16.4059 17.3386 16.5269V17.5039C17.3432 17.5688 17.3324 17.6337 17.3066 17.6948C17.2809 17.7559 17.2408 17.8119 17.1889 17.8592C17.1369 17.9065 17.0742 17.9442 17.0047 17.97C16.9351 17.9958 16.8601 18.0091 16.7843 18.0091C16.7085 18.0091 16.6335 17.9958 16.564 17.97C16.4944 17.9442 16.4317 17.9065 16.3798 17.8592C16.3279 17.8119 16.2878 17.7559 16.262 17.6948C16.2363 17.6337 16.2254 17.5688 16.23 17.5039Z" fill="#D9D9D9"/>
<path d="M18.7059 22.5501C18.7059 22.8238 18.6112 23.0913 18.4338 23.3188C18.2564 23.5463 18.0042 23.7236 17.7092 23.8282C17.4142 23.9329 17.0897 23.9601 16.7766 23.9066C16.4635 23.8531 16.1759 23.7212 15.9503 23.5276C15.7247 23.3339 15.5712 23.0873 15.5091 22.8189C15.4471 22.5504 15.4794 22.2722 15.6018 22.0195C15.7243 21.7668 15.9315 21.5509 16.1971 21.3991C16.4628 21.2473 16.775 21.1665 17.0943 21.1669C17.5219 21.1673 17.9318 21.3133 18.234 21.5726C18.5362 21.832 18.7059 22.1836 18.7059 22.5501Z" fill="#D9D9D9"/>
<path d="M25.9669 17.5039V16.5269C25.9669 16.4011 26.0252 16.2805 26.129 16.1916C26.2327 16.1026 26.3734 16.0527 26.5202 16.0527C26.6669 16.0527 26.8076 16.1026 26.9113 16.1916C27.0151 16.2805 27.0734 16.4011 27.0734 16.5269V17.5039C27.0734 17.6297 27.0151 17.7503 26.9113 17.8392C26.8076 17.9281 26.6669 17.9781 26.5202 17.9781C26.3734 17.9781 26.2327 17.9281 26.129 17.8392C26.0252 17.7503 25.9669 17.6297 25.9669 17.5039Z" fill="#D9D9D9"/>
<path d="M27.8229 22.5501C27.8229 22.8238 27.7282 23.0913 27.5508 23.3188C27.3734 23.5463 27.1212 23.7236 26.8262 23.8282C26.5312 23.9329 26.2066 23.9601 25.8935 23.9066C25.5804 23.8531 25.2929 23.7212 25.0673 23.5276C24.8417 23.3339 24.6881 23.0873 24.6261 22.8189C24.5641 22.5504 24.5963 22.2722 24.7188 22.0195C24.8412 21.7668 25.0484 21.5509 25.3141 21.3991C25.5797 21.2473 25.8919 21.1665 26.2112 21.1669C26.6388 21.1673 27.0488 21.3133 27.351 21.5726C27.6532 21.832 27.8229 22.1836 27.8229 22.5501Z" fill="#D9D9D9"/>
<path d="M29.9878 16.3175C29.3737 16.3175 28.7734 16.4736 28.2629 16.7661C27.7523 17.0585 27.3544 17.4742 27.1195 17.9605C26.8846 18.4469 26.8233 18.982 26.9432 19.4982C27.0632 20.0144 27.359 20.4885 27.7934 20.8606C28.2278 21.2326 28.7811 21.4859 29.3834 21.5884C29.9858 21.6908 30.61 21.6379 31.1772 21.4362C31.7445 21.2346 32.2291 20.8932 32.57 20.4554C32.9109 20.0176 33.0926 19.503 33.0922 18.9766C33.0922 18.6273 33.0119 18.2813 32.8558 17.9586C32.6998 17.6359 32.4711 17.3426 32.1828 17.0957C31.8945 16.8488 31.5523 16.6529 31.1756 16.5194C30.799 16.3859 30.3954 16.3173 29.9878 16.3175ZM28.0546 19.7049C27.8757 19.7049 27.7009 19.6594 27.5522 19.5742C27.4035 19.489 27.2876 19.3679 27.2193 19.2262C27.1509 19.0845 27.1331 18.9286 27.1682 18.7783C27.2032 18.6279 27.2895 18.4899 27.4162 18.3816C27.5428 18.2733 27.704 18.1996 27.8795 18.1699C28.055 18.1402 28.2369 18.1558 28.402 18.2148C28.5671 18.2737 28.7082 18.3733 28.8072 18.5009C28.9063 18.6286 28.959 18.7786 28.9586 18.9319C28.9589 19.0336 28.9356 19.1344 28.8903 19.2284C28.8449 19.3224 28.7783 19.4078 28.6943 19.4797C28.6103 19.5515 28.5105 19.6084 28.4007 19.6471C28.2909 19.6857 28.1733 19.7054 28.0546 19.7049ZM30.0149 21.3762C29.8362 21.3762 29.6614 21.3308 29.5127 21.2457C29.3641 21.1605 29.2482 21.0395 29.1798 20.8979C29.1114 20.7563 29.0935 20.6006 29.1283 20.4503C29.1632 20.3 29.2493 20.1619 29.3757 20.0535C29.5022 19.9452 29.6632 19.8714 29.8386 19.8415C30.0139 19.8116 30.1957 19.8269 30.3609 19.8856C30.526 19.9442 30.6672 20.0435 30.7666 20.1709C30.8659 20.2984 30.9189 20.4482 30.9189 20.6014C30.9192 20.7032 30.896 20.8041 30.8507 20.8982C30.8053 20.9923 30.7387 21.0778 30.6548 21.1498C30.5708 21.2218 30.471 21.2789 30.3612 21.3177C30.2514 21.3566 30.1337 21.3765 30.0149 21.3762ZM30.0149 18.0372C29.8361 18.0372 29.6612 17.9917 29.5125 17.9064C29.3638 17.8212 29.2479 17.7001 29.1796 17.5584C29.1112 17.4167 29.0934 17.2609 29.1285 17.1105C29.1635 16.9602 29.2498 16.8221 29.3765 16.7138C29.5031 16.6055 29.6644 16.5319 29.8399 16.5022C30.0154 16.4725 30.1972 16.4881 30.3623 16.547C30.5275 16.6059 30.6685 16.7055 30.7676 16.8332C30.8667 16.9608 30.9193 17.1108 30.9189 17.2641C30.9192 17.3659 30.896 17.4666 30.8506 17.5606C30.8053 17.6547 30.7386 17.74 30.6546 17.8119C30.5706 17.8838 30.4708 17.9406 30.361 17.9793C30.2513 18.018 30.1336 18.0376 30.0149 18.0372ZM32.0358 19.7049C31.8569 19.7049 31.6821 19.6594 31.5334 19.5742C31.3847 19.489 31.2688 19.3679 31.2005 19.2262C31.1321 19.0845 31.1143 18.9286 31.1494 18.7783C31.1844 18.6279 31.2707 18.4899 31.3974 18.3816C31.524 18.2733 31.6852 18.1996 31.8607 18.1699C32.0362 18.1402 32.218 18.1558 32.3832 18.2148C32.5483 18.2737 32.6894 18.3733 32.7884 18.5009C32.8875 18.6286 32.9402 18.7786 32.9398 18.9319C32.94 19.0336 32.9168 19.1344 32.8715 19.2284C32.8261 19.3224 32.7595 19.4078 32.6755 19.4797C32.5915 19.5515 32.4917 19.6084 32.3819 19.6471C32.2721 19.6857 32.1545 19.7054 32.0358 19.7049Z" fill="#D9D9D9"/>
<path d="M36.0128 24.7851C35.8562 23.5486 35.5953 22.3568 35.3301 21.2528C35.0191 19.9554 34.7038 18.8352 34.3385 17.8296C34.1599 17.2653 33.8848 16.7268 33.5222 16.2316C33.4262 16.1081 33.3343 15.99 33.2446 15.8737L33.1736 15.7825C33.0254 15.5874 32.8709 15.387 32.7143 15.1919C32.6305 15.09 32.5249 15.0026 32.4032 14.9343C32.3387 14.8365 32.253 14.7503 32.1506 14.6802C32.0372 14.6067 31.913 14.5466 31.7811 14.5012C30.6808 14.1035 29.443 14.0887 28.3302 14.4601C28.0984 14.5335 27.9095 14.6819 27.8041 14.8734C27.7152 14.892 27.6242 14.9022 27.5327 14.9038H25.6538C25.5363 14.7566 25.3787 14.6361 25.1946 14.5528C25.0105 14.4696 24.8055 14.4261 24.5974 14.4261H18.706C18.4978 14.4261 18.2929 14.4696 18.1088 14.5528C17.9247 14.6361 17.7671 14.7566 17.6496 14.9038H15.7707C15.6828 14.9042 15.5951 14.8951 15.5097 14.877C15.4051 14.6846 15.216 14.5354 14.9837 14.4618C13.8707 14.0885 12.6316 14.1026 11.5306 14.5012C11.3991 14.546 11.2754 14.6062 11.1632 14.6802C11.0651 14.7504 10.9818 14.8345 10.9169 14.9289C10.7939 14.998 10.6876 15.0867 10.6037 15.1901C10.4221 15.4156 10.2446 15.6482 10.0734 15.8737L10.0338 15.9238L9.79996 16.2298C9.43512 16.7251 9.15859 17.2643 8.9795 17.8296C8.61624 18.8657 8.29265 19.9769 7.98994 21.251C7.71228 22.3586 7.44506 23.554 7.28848 24.7887C7.20838 25.3946 7.17143 26.0041 7.17783 26.6139C7.17783 27.4889 7.42209 28.2244 8.52856 29.0153C9.19235 29.4536 10.008 29.6892 10.8459 29.6846C12.0025 29.6846 13.1736 29.2605 13.6329 28.6789C14.0922 28.0974 14.4847 27.217 14.8208 26.3831L14.8459 26.3169C15.0379 25.8337 15.2363 25.3345 15.4304 24.837C16.0093 25.0937 16.6603 25.2064 17.31 25.1624C17.9597 25.1185 18.5821 24.9196 19.1068 24.5883H24.1966C24.799 24.9645 25.5243 25.1686 26.2696 25.1716C26.8276 25.1701 27.3772 25.0548 27.873 24.8352C28.0191 25.2146 28.1715 25.5993 28.3197 25.9733L28.3719 26.1021L28.4826 26.3813C28.8145 27.2152 29.1903 28.0705 29.6705 28.6789C30.1297 29.2605 31.303 29.6846 32.4575 29.6846C33.287 29.6911 34.0952 29.46 34.7539 29.0279C35.8771 28.2334 36.113 27.4889 36.1235 26.6139C36.1313 26.0029 36.0943 25.3921 36.0128 24.7851ZM18.6601 15.523C18.6548 15.4596 18.6784 15.397 18.7259 15.3483C18.7734 15.2995 18.8411 15.2685 18.9147 15.2617H24.3991C24.4741 15.2663 24.5439 15.2962 24.5932 15.3448C24.6425 15.3935 24.6673 15.4569 24.6621 15.5212V17.9781C24.6673 18.0424 24.6425 18.1058 24.5932 18.1544C24.5439 18.2031 24.4741 18.233 24.3991 18.2376H18.9147C18.8415 18.2308 18.7741 18.2 18.7266 18.1517C18.6792 18.1033 18.6553 18.0411 18.6601 17.9781V15.523ZM34.159 28.3658C33.6732 28.6821 33.078 28.8503 32.4679 28.8436C31.5076 28.8436 30.7039 28.4731 30.493 28.2065C30.0755 27.6697 29.6976 26.8054 29.422 26.1111L29.3323 25.8838C29.1235 25.347 28.9147 24.8281 28.7059 24.2984C28.653 24.1909 28.5726 24.0949 28.4707 24.0175C28.3689 23.9401 28.2481 23.8832 28.1172 23.851C28.0844 23.8386 28.0487 23.8325 28.0128 23.8331C27.9372 23.8358 27.8643 23.8583 27.8041 23.8975C27.3616 24.18 26.8255 24.3342 26.2738 24.3377C25.6939 24.3347 25.1323 24.1631 24.6809 23.851C24.5839 23.7869 24.4652 23.7517 24.3427 23.7508H18.9607C18.8373 23.7518 18.7177 23.7877 18.6204 23.8528C18.182 24.1568 17.6375 24.3261 17.0737 24.3339C16.5099 24.3417 15.9593 24.1874 15.5097 23.8958C15.4491 23.8569 15.3766 23.8339 15.301 23.8295C15.2635 23.8286 15.2263 23.8354 15.1924 23.8492C15.0626 23.8828 14.9433 23.9411 14.8435 24.0198C14.7437 24.0985 14.666 24.1956 14.6162 24.3038C14.3803 24.9104 14.1361 25.5224 13.9002 26.1129C13.6246 26.809 13.253 27.675 12.8292 28.2101C12.6204 28.4767 11.8146 28.8471 10.8542 28.8471C10.2417 28.8531 9.64443 28.6837 9.15695 28.3658C8.33232 27.7878 8.17157 27.2975 8.16113 26.605C8.15527 26.0287 8.18943 25.4527 8.26343 24.8799C8.41791 23.6739 8.68096 22.5054 8.93775 21.421C9.23211 20.1791 9.54943 19.084 9.90225 18.0729C10.0573 17.5865 10.2935 17.1218 10.6037 16.6933L10.8438 16.3783C11.0254 16.1439 11.2112 15.9006 11.3991 15.6626C11.4408 15.6299 11.4879 15.6027 11.539 15.582C11.5935 15.5582 11.6408 15.5238 11.677 15.4816C11.7133 15.4393 11.7375 15.3904 11.7478 15.3387C11.7873 15.3147 11.83 15.2948 11.8751 15.2796C12.7383 14.9611 13.7128 14.9457 14.5891 15.2367C14.5897 15.3231 14.6268 15.4063 14.6935 15.4711C14.76 15.5372 14.8532 15.5794 14.9544 15.5892C15.2085 15.6932 15.4872 15.7452 15.7686 15.7413H17.7018V18.1642C17.7024 18.3956 17.8099 18.6175 18.0008 18.7811C18.1918 18.9448 18.4506 19.037 18.7206 19.0374H24.6078C24.8777 19.037 25.1363 18.9448 25.3269 18.781C25.5175 18.6173 25.6245 18.3955 25.6245 18.1642V15.7413H27.5389C27.8228 15.7465 28.104 15.6938 28.3594 15.5874C28.4582 15.5784 28.5493 15.5374 28.6141 15.4729C28.6772 15.4056 28.7098 15.3211 28.7059 15.2349C29.5792 14.9463 30.5494 14.9617 31.4095 15.2778C31.4549 15.2923 31.4978 15.3122 31.5368 15.3369C31.5481 15.3912 31.575 15.4422 31.6151 15.4853C31.6552 15.5285 31.7072 15.5623 31.7665 15.5838C31.8156 15.6045 31.8607 15.6317 31.9001 15.6643C32.0755 15.8827 32.2487 16.1063 32.4137 16.3247L32.7038 16.6933C33.012 17.121 33.2468 17.5844 33.4011 18.0694C33.7477 19.0571 34.065 20.1523 34.3677 21.4192C34.6266 22.5089 34.8876 23.681 35.04 24.8764C35.116 25.449 35.1502 26.0251 35.1423 26.6014C35.1339 27.2975 34.9711 27.7878 34.1485 28.3658H34.159Z" fill="#D9D9D9"/>
<path d="M16.2231 26.4215V28.2052C16.2239 28.3799 16.3054 28.5471 16.4496 28.6704C16.5938 28.7936 16.7891 28.8628 16.9927 28.8628H19.072C19.2756 28.8628 19.4709 28.7936 19.6151 28.6704C19.7593 28.5471 19.8408 28.3799 19.8416 28.2052V26.4215C19.8416 26.2464 19.7605 26.0785 19.6162 25.9547C19.4718 25.8308 19.2761 25.7613 19.072 25.7613H16.9927C16.7886 25.7613 16.5928 25.8308 16.4485 25.9547C16.3042 26.0785 16.2231 26.2464 16.2231 26.4215Z" fill="#D9D9D9"/>
<path d="M19.902 26.4215V28.2052C19.9028 28.3799 19.9842 28.5471 20.1284 28.6704C20.2727 28.7936 20.4679 28.8628 20.6715 28.8628H22.7508C22.9544 28.8628 23.1497 28.7936 23.2939 28.6704C23.4382 28.5471 23.5196 28.3799 23.5204 28.2052V26.4215C23.5204 26.2464 23.4393 26.0785 23.295 25.9547C23.1507 25.8308 22.9549 25.7613 22.7508 25.7613H20.6715C20.4674 25.7613 20.2717 25.8308 20.1274 25.9547C19.983 26.0785 19.902 26.2464 19.902 26.4215Z" fill="#D9D9D9"/>
<path d="M23.3996 26.4215V28.2052C23.4004 28.3799 23.4819 28.5471 23.6261 28.6704C23.7703 28.7936 23.9656 28.8628 24.1692 28.8628H26.2485C26.4521 28.8628 26.6474 28.7936 26.7916 28.6704C26.9358 28.5471 27.0173 28.3799 27.0181 28.2052V26.4215C27.0181 26.2464 26.937 26.0785 26.7927 25.9547C26.6484 25.8308 26.4526 25.7613 26.2485 25.7613H24.1692C23.9651 25.7613 23.7694 25.8308 23.625 25.9547C23.4807 26.0785 23.3996 26.2464 23.3996 26.4215Z" fill="#D9D9D9"/>
<path d="M15.9973 26.5407V26.4213C15.9985 26.1942 16.1043 25.9768 16.2916 25.8162C16.479 25.6556 16.7327 25.5649 16.9977 25.5639H26.3113C26.5753 25.5674 26.8274 25.6589 27.0141 25.8189C27.2008 25.979 27.3075 26.195 27.3116 26.4213V28.1323C27.3116 28.2448 27.2858 28.3562 27.2355 28.4601C27.1852 28.564 27.1114 28.6584 27.0185 28.7379C26.9256 28.8174 26.8153 28.8803 26.6939 28.9232C26.5726 28.9661 26.4426 28.988 26.3113 28.9878H16.9931C16.8618 28.988 16.7318 28.9661 16.6105 28.9232C16.4891 28.8803 16.3788 28.8174 16.2859 28.7379C16.193 28.6584 16.1192 28.564 16.0689 28.4601C16.0186 28.3562 15.9928 28.2448 15.9928 28.1323V28.0129M23.8516 27.9522C23.8522 28.0842 23.9138 28.2107 24.023 28.3039C24.1321 28.3971 24.2799 28.4494 24.434 28.4494H26.0076C26.1616 28.4494 26.3094 28.3971 26.4186 28.3039C26.5277 28.2107 26.5893 28.0842 26.5899 27.9522V26.6014C26.5893 26.4694 26.5277 26.3429 26.4186 26.2497C26.3094 26.1565 26.1616 26.1042 26.0076 26.1042H24.434C24.2799 26.1042 24.1321 26.1565 24.023 26.2497C23.9138 26.3429 23.8522 26.4694 23.8516 26.6014V27.9522ZM20.3298 27.9522C20.3304 28.0842 20.3921 28.2107 20.5012 28.3039C20.6104 28.3971 20.7582 28.4494 20.9122 28.4494H22.4858C22.6397 28.4494 22.7872 28.397 22.896 28.3038C23.0048 28.2105 23.0659 28.0841 23.0659 27.9522V26.6014C23.0659 26.4696 23.0048 26.3431 22.896 26.2498C22.7872 26.1566 22.6397 26.1042 22.4858 26.1042H20.9122C20.7582 26.1042 20.6104 26.1565 20.5012 26.2497C20.3921 26.3429 20.3304 26.4694 20.3298 26.6014V27.9522ZM16.6756 27.9522C16.6756 28.0841 16.7368 28.2105 16.8455 28.3038C16.9543 28.397 17.1019 28.4494 17.2557 28.4494H18.8316C18.9843 28.4479 19.1301 28.3948 19.2374 28.3017C19.3447 28.2086 19.4049 28.083 19.4049 27.9522V26.6014C19.4049 26.5361 19.3899 26.4715 19.3607 26.4112C19.3316 26.3508 19.2888 26.296 19.235 26.2498C19.1811 26.2037 19.1171 26.167 19.0468 26.1421C18.9764 26.1171 18.9009 26.1042 18.8248 26.1042H17.2489C17.095 26.1042 16.9475 26.1566 16.8387 26.2498C16.7299 26.3431 16.6688 26.4696 16.6688 26.6014L16.6756 27.9522Z" fill="#D9D9D9"/>
</svg>
